PathFileType	4	(X/Y/Z)	s03c0402.trc
DataRate	CameraRate	NumFrames	NumMarkers	Units	OrigDataRate	OrigDataStartFrame	OrigNumFrames
200	200	4	50	mm	200	0	2000
Frame#	Time	racr			lacr			c7			jug			rlel			rdr			llel			ldr			s2			lic			ric			lasi			rasi			rpsi			lpsi			rgt			lgt			rth1			rth2			rth3			rth4			rlfc			rmfc			rsh1			rsh2			rsh3			rsh4			rlmal			rcal			rtoe			rmt5			rmt1			lth1			lth2			lth4			lth3			llfc			lmfc			lsh1			lsh2			lsh3			lsh4			llmal			lcal			ltoe			lmt1			lmt5			SBIKE			LBIKE			RBIKE			
		X1	Y1	Z1	X2	Y2	Z2	X3	Y3	Z3	X4	Y4	Z4	X5	Y5	Z5	X6	Y6	Z6	X7	Y7	Z7	X8	Y8	Z8	X9	Y9	Z9	X10	Y10	Z10	X11	Y11	Z11	X12	Y12	Z12	X13	Y13	Z13	X14	Y14	Z14	X15	Y15	Z15	X16	Y16	Z16	X17	Y17	Z17	X18	Y18	Z18	X19	Y19	Z19	X20	Y20	Z20	X21	Y21	Z21	X22	Y22	Z22	X23	Y23	Z23	X24	Y24	Z24	X25	Y25	Z25	X26	Y26	Z26	X27	Y27	Z27	X28	Y28	Z28	X29	Y29	Z29	X30	Y30	Z30	X31	Y31	Z31	X32	Y32	Z32	X33	Y33	Z33	X34	Y34	Z34	X35	Y35	Z35	X36	Y36	Z36	X37	Y37	Z37	X38	Y38	Z38	X39	Y39	Z39	X40	Y40	Z40	X41	Y41	Z41	X42	Y42	Z42	X43	Y43	Z43	X44	Y44	Z44	X45	Y45	Z45	X46	Y46	Z46	X47	Y47	Z47	X48	Y48	Z48	X49	Y49	Z49	X50	Y50	Z50	
0	0.0000	487.049059	1452.460953	-89.658305	481.046472	1480.217376	-394.039735	402.464788	1529.183101	-239.135327	451.367528	1364.295098	-239.752934	523.433832	1184.834839	14.846807	735.229154	984.610350	-24.838879	536.803092	1210.349787	-471.647006	731.100500	977.017045	-448.665229	-97.446673	1217.083271	-248.506885	92.571469	1217.344647	-423.724222	82.828876	1239.790091	-64.228262	103.010870	1139.800253	-392.867098	94.685474	1174.253337	-106.117714	-66.138355	1264.838739	-204.579232	-58.242879	1260.711065	-288.826813	16.374958	1161.129412	-41.489691	15.792864	1106.259702	-445.641849	141.189300	1069.381831	-30.182140	229.969444	1063.456302	-30.318235	303.303085	1017.962608	-34.888728	242.054527	1096.014555	-43.104081	417.376284	951.565209	-56.899810	421.583784	939.209028	-183.346924	356.965004	798.326740	-38.433278	344.693999	711.464587	-54.069135	287.765034	643.116772	-58.509370	370.275018	702.143091	-80.450316	228.597410	524.188850	-80.818376	163.356177	476.837106	-123.636174	473.700634	477.323628	-117.510857	353.258143	459.802688	-50.609288	380.613868	476.096585	-164.980938	83.597434	958.406425	-461.106674	140.218162	892.564689	-461.297254	172.978901	908.496472	-456.919999	157.765400	805.091065	-448.270864	229.436487	697.345742	-428.716696	228.362450	688.030189	-305.125332	133.440984	552.772282	-451.646833	114.694284	471.677041	-433.716473	53.266779	404.752582	-428.688812	141.937892	459.868574	-407.871165	-11.859157	293.286346	-406.653379	-83.088143	248.010911	-359.793836	226.204825	226.700106	-360.384266	132.293658	226.686890	-316.526215	105.575301	209.821220	-433.632779	-220.818262	943.668163	-236.945935	-14.122674	79.710130	-436.725032	-14.515016	80.434926	-36.796367	
1	0.0050	487.107229	1452.469722	-89.599851	481.069918	1480.184384	-394.028550	402.437254	1529.192612	-239.060376	451.343145	1364.266008	-239.681367	523.428938	1184.832950	14.900539	735.227388	984.592959	-24.838444	536.675541	1211.424947	-473.876965	731.115481	977.019309	-448.717902	-97.439704	1217.048675	-248.513165	92.614127	1217.333176	-423.708514	82.837273	1239.769132	-64.223623	103.013689	1139.802507	-392.875275	94.682210	1174.291240	-106.079688	-66.122709	1264.839927	-204.583392	-58.246950	1260.736429	-288.830162	16.355911	1161.127007	-41.485138	15.787715	1106.252239	-445.643912	141.183156	1069.412753	-30.162070	229.949729	1063.505140	-30.301829	303.290421	1018.022272	-34.861901	242.061839	1096.069917	-43.065623	417.380603	951.635939	-56.855321	421.800677	939.045834	-183.863408	356.945342	798.399098	-38.421804	344.653534	711.566306	-54.057109	287.714487	643.208172	-58.497949	370.251946	702.220796	-80.434181	228.520623	524.297142	-80.808738	163.268719	476.947228	-123.626769	473.631024	477.411713	-117.513295	353.178921	459.904595	-50.615863	380.522763	476.204279	-164.973650	83.568121	958.343662	-461.071010	140.150136	892.483655	-461.256637	172.935218	908.393793	-456.861220	157.688808	804.992915	-448.157221	229.325349	697.283593	-428.627224	228.257929	687.943718	-305.031885	133.372940	552.657935	-451.589375	114.645429	471.568785	-433.664350	53.267328	404.638319	-428.662785	141.899555	459.740445	-407.804507	-11.852576	293.111957	-406.643410	-83.051135	247.817716	-359.799940	226.138081	226.692122	-360.455230	131.882560	227.830710	-317.872554	105.628596	209.745256	-433.637404	-220.811197	943.670790	-236.953323	-14.117578	79.762434	-436.701596	-14.517878	80.429087	-36.802425	
2	0.0100	487.103950	1452.487156	-89.556961	481.093216	1480.168589	-394.019271	402.456537	1529.210852	-239.069257	451.373698	1364.272010	-239.633087	523.419711	1184.832870	14.966796	735.235683	984.608564	-24.818078	536.701045	1211.417584	-473.881825	731.142768	977.037196	-448.755558	-97.421917	1217.057772	-248.520487	92.656143	1217.307688	-423.690121	82.850778	1239.793994	-64.213421	103.029586	1139.771954	-392.849136	94.713242	1174.291305	-106.117293	-66.122518	1264.849042	-204.588443	-58.236878	1260.730597	-288.841890	16.331017	1161.152619	-41.472763	15.796174	1106.227245	-445.609620	141.177382	1069.445209	-30.133427	229.938745	1063.553624	-30.268527	303.294491	1018.070206	-34.813417	242.036224	1096.108621	-43.034095	417.385958	951.693079	-56.823408	421.743042	939.236459	-183.397034	356.943185	798.468714	-38.394451	344.632294	711.613337	-54.030091	287.660764	643.274931	-58.484393	370.198385	702.304043	-80.434761	228.444249	524.410760	-80.789611	163.209117	477.049155	-123.623191	473.554629	477.503500	-117.495457	353.084892	459.991134	-50.601705	380.431472	476.310479	-164.962411	83.524502	958.297163	-461.023975	140.101692	892.424727	-461.199237	172.875951	908.325221	-456.803982	157.600459	804.924645	-448.085094	229.220628	697.217795	-428.566477	228.131558	687.850135	-304.942428	133.314252	552.582074	-451.535292	114.600848	471.479681	-433.625414	53.247228	404.473642	-428.648049	141.865368	459.639218	-407.735958	-11.840402	292.941286	-406.618841	-83.007112	247.603386	-359.785283	226.192540	226.659362	-360.443705	131.931992	227.737505	-317.857847	105.686091	209.658073	-433.621338	-220.812730	943.670750	-236.950676	-14.113092	79.753671	-436.690787	-14.522786	80.409202	-36.815132	
3	0.0150	487.128680	1452.504197	-89.502076	481.105887	1480.192158	-393.987688	402.453002	1529.203605	-239.029088	448.927666	1364.173098	-240.994188	523.432687	1184.836011	15.023673	735.234317	984.593101	-24.790221	537.736318	1210.579439	-471.611849	731.163219	977.037955	-448.805582	-96.729940	1217.258622	-248.713074	93.164620	1217.700672	-424.904616	83.227192	1239.772265	-64.198206	100.598535	1137.525741	-387.833827	94.684121	1174.329287	-106.084507	-66.128240	1264.853459	-204.585526	-58.232251	1260.760377	-288.857824	16.320395	1161.174163	-41.450096	15.561232	1106.239620	-445.923994	141.051535	1069.437228	-30.093544	229.944723	1063.581859	-30.233459	303.345424	1018.060230	-34.679683	241.233204	1096.597923	-43.912744	417.283297	951.550665	-56.612410	422.594745	938.275790	-181.115083	356.899114	798.481861	-38.338028	344.589168	711.676638	-53.990993	287.599562	643.337861	-58.468805	371.619775	703.294343	-80.022655	228.350728	524.498261	-80.777311	163.136707	477.124868	-123.627076	473.423158	477.571380	-117.357224	353.011959	460.069261	-50.597555	380.338730	476.393273	-164.939501	83.471060	958.224942	-461.041296	140.601303	891.498641	-459.385318	173.292423	907.705888	-455.600827	157.521764	804.849307	-448.003864	229.686026	696.549671	-427.297870	227.981210	687.783714	-304.868130	133.414514	551.321537	-449.474678	114.866675	470.415522	-431.713735	53.240750	404.344547	-428.629767	142.205021	458.693761	-405.951477	-12.320794	293.807786	-408.114588	-82.969418	247.402806	-359.781937	226.227165	226.631704	-360.439227	132.449680	226.464738	-316.482272	106.368452	208.056163	-431.500277	-220.866490	943.687724	-237.269972	-14.098902	79.763218	-436.698975	-14.512793	80.422243	-36.801563	
